<?xml version="1.0" encoding="utf-8"?>
<!-- Generator: Adobe Illustrator 23.0.4, SVG Export Plug-In . SVG Version: 6.00 Build 0)  -->
<svg version="1.1" id="Layer_1" xmlns="http://www.w3.org/2000/svg" xmlns:xlink="http://www.w3.org/1999/xlink" x="0px" y="0px"
	 viewBox="0 0 319.5804 319.5804" enable-background="new 0 0 319.5804 319.5804" xml:space="preserve">
<circle fill="#06AD4B" cx="159.7902" cy="159.7902" r="159.7902"/>
<g>
	<path fill="#FFFFFF" d="M108.8063,231.6226H83.7501l-19.0083-84.2412h-0.8643v84.2412H43.1412V87.9805h25.0566l19.0083,89.6411
		h0.8638V87.9805h20.7363V231.6226z"/>
	<path fill="#FFFFFF" d="M177.0602,112.6045h-27.2163v30.4566h22.0322v23.7607h-22.0322v41.04h27.2163v23.7607h-53.1367V87.9805
		h53.1367V112.6045z"/>
	<path fill="#FFFFFF" d="M241.4274,87.9805l9.2881,90.937h0.8643l3.8882-90.937h25.9199L265.836,231.6226h-24.6245l-9.0723-73.4414
		h-0.8638l-9.0723,73.4414h-23.1123L183.5387,87.9805h25.9204l3.8877,90.937h0.8643l9.2881-90.937H241.4274z"/>
</g>
<g>
</g>
<g>
</g>
<g>
</g>
<g>
</g>
<g>
</g>
<g>
</g>
</svg>
