<?xml version="1.0" encoding="utf-8"?>
<!-- Generator: Adobe Illustrator 23.0.4, SVG Export Plug-In . SVG Version: 6.00 Build 0)  -->
<svg version="1.1" id="Layer_1" xmlns="http://www.w3.org/2000/svg" xmlns:xlink="http://www.w3.org/1999/xlink" x="0px" y="0px"
	 viewBox="0 0 105.4615 105.4615" enable-background="new 0 0 105.4615 105.4615" xml:space="preserve">
<circle fill="#06AD4B" cx="52.7308" cy="52.7308" r="52.7308"/>
<g>
	<path fill="#FFFFFF" d="M35.9061,76.4354h-8.2685l-6.2727-27.7996h-0.2852v27.7996h-6.843V29.0336h8.2687l6.2727,29.5816h0.285
		V29.0336h6.843V76.4354z"/>
	<path fill="#FFFFFF" d="M58.4299,37.1595h-8.9814v10.0507h7.2706v7.841h-7.2706v13.5432h8.9814v7.841H40.8947V29.0336h17.5351
		V37.1595z"/>
	<path fill="#FFFFFF" d="M79.671,29.0336l3.0651,30.0092h0.2852l1.2831-30.0092h8.5536l-5.1321,47.4019h-8.1261L76.606,52.1998
		h-0.285l-2.9939,24.2357H65.7l-5.1322-47.4019h8.5537l1.2829,30.0092h0.2852l3.0651-30.0092H79.671z"/>
</g>
<g>
</g>
<g>
</g>
<g>
</g>
<g>
</g>
<g>
</g>
<g>
</g>
</svg>
