<?xml version="1.0" encoding="utf-8"?>
<!-- Generator: Adobe Illustrator 26.0.2, SVG Export Plug-In . SVG Version: 6.00 Build 0)  -->
<svg version="1.1" xmlns="http://www.w3.org/2000/svg" xmlns:xlink="http://www.w3.org/1999/xlink" x="0px" y="0px"
	 viewBox="0 0 1027.4849 251.2812" style="enable-background:new 0 0 1027.4849 251.2812;" xml:space="preserve">
<style type="text/css">
	.st0{fill:#FFFFFF;}
	.st1{display:none;}
	.st2{display:inline;}
	.st3{fill:#BE4727;}
</style>
<g id="Layer_1">
	<path class="st0" d="M798.1148,183.707l12.8144-58.0664h-40.6865l-12.7217,56.959c-2.2119,9.9629-5.165,11.0703-9.04,14.3916
		h52.5849c-1.6601-2.0293-3.6894-4.2432-3.6894-7.0108C797.3765,188.873,797.3765,187.2119,798.1148,183.707z"/>
	<g>
		<path class="st0" d="M872.7378,125.6406l-15.8086,72.9912h114.1309c19.3427-18.3516,31.4249-44.2861,31.4249-72.9912H872.7378z"/>
		<path class="st0" d="M56.4258,198.6328h103.7085l15.1367-72.9922H25C25,154.3457,37.082,180.2812,56.4258,198.6328z"/>
	</g>
	<polygon class="st0" points="772.6245,114.978 771.2876,120.9624 811.9614,120.9624 813.2817,114.978 	"/>
	<g>
		<path class="st0" d="M660.0737,91.2602c4.2422-1.9995,8.9297-3.1304,14.0469-3.1304c4.9355,0,9.2403,1.0767,12.8008,3.1304
			h47.8672c-8.2178-18.5972-26.9033-31.73-58.6367-31.73c-29.8702,0-52.9219,12.7813-67.3174,31.73H660.0737z"/>
		<path class="st0" d="M601.5542,102.7197c-1.2891,2.4638-2.4609,4.9922-3.5,7.5801h43.251
			c1.4414-2.7168,3.0801-5.2505,4.8867-7.5801H601.5542z"/>
		<path class="st0" d="M696.2612,102.7197c0.8418,2.2822,1.4385,4.8076,1.7549,7.5801h41.5176
			c-0.2236-2.5762-0.5908-5.1065-1.1016-7.5801H696.2612z"/>
	</g>
	<path class="st0" d="M698.2866,114.978c0.001,0.0928,0.0049,0.1821,0.0049,0.2754c0,1.9072-0.0762,3.8125-0.2148,5.709h41.6181
		c0.0733-1.4678,0.1133-2.9405,0.1133-4.4175c0-0.5249-0.0195-1.0449-0.0303-1.5669H698.2866z"/>
	<path class="st0" d="M596.3237,114.978c-0.6591,1.9692-1.2529,3.9638-1.7695,5.9844h42.3018
		c0.6513-2.0513,1.3955-4.0484,2.2197-5.9844H596.3237z"/>
	<path class="st0" d="M697.5991,125.6406c-3.2314,24.1484-17.6434,45.5195-40.2675,45.5195
		c-14.7618,0-23.9874-9.7793-23.9874-27.124c0-6.2432,0.754-12.4756,2.2032-18.3955h-42.0469
		c-1.1025,5.5815-1.6709,11.311-1.6709,17.1045c0,30.8134,18.8203,57.0146,63.6563,57.0146
		c49.0537,0,79.7666-34.4404,83.8505-74.1191H697.5991z"/>
	<g>
		<path class="st0" d="M225.5825,91.2602c1.6983-0.2295,3.5113-0.3633,5.459-0.3633h42.4375l-0.3584,0.3633h46.0205l6.0015-6.0825
			l4.9824-22.8789c4.4277,2.3984,6.2734,6.0884,8.3027,13.0996l4.5215,15.8618h40.6192l-3.9951-15.6777
			c-0.5538-2.0293-1.1075-4.2437-1.1075-6.458c0-2.9522,2.2144-4.7969,4.7974-6.8262H330.125h-0.001H220.3399l-6.4004,28.9619
			H225.5825z"/>
		<polygon class="st0" points="261.8135,102.7197 254.3345,110.2998 300.355,110.2998 307.834,102.7197 		"/>
		<polygon class="st0" points="346.2158,102.7197 348.3765,110.2998 388.4199,110.2998 386.4883,102.7197 		"/>
	</g>
	<polygon class="st0" points="249.7188,114.978 243.814,120.9624 289.834,120.9624 295.7388,114.978 	"/>
	<polygon class="st0" points="349.7095,114.978 351.4155,120.9624 391.1367,120.9624 389.6118,114.978 	"/>
	<g>
		<path class="st0" d="M423.1182,75.5825l-10.2906,15.6777h34.1202l8.6435-12.356c4.7505-6.686,9.5039-12.5273,15.0547-16.0957
			c1.5386,1.9175,3.0933,4.1294,3.0933,6.501c0,1.8452-0.1851,3.8745-0.7388,6.273l-3.4868,15.6777h40.8628l0.081-0.3633h8.3028
			c2.1699,0,4.249,0.1284,6.2469,0.3633h60.9278c-11.3936-23.606-40.2666-28.9619-71.0497-28.9619h-43.4248h-1.2261h-47.3013
			c1.6607,2.0293,3.3213,3.5058,3.3213,6.458C426.2544,70.9707,424.7788,73.184,423.1182,75.5825z"/>
		<polygon class="st0" points="405.3062,102.7197 400.3306,110.2998 433.6294,110.2998 438.9317,102.7197 		"/>
		<path class="st0" d="M545.5845,102.7197c1.3594,2.1963,2.4131,4.7031,3.0849,7.5801h42.1456
			c-0.2178-2.6705-0.587-5.1875-1.0791-7.5801H545.5845z"/>
		<polygon class="st0" points="466.9653,102.7197 465.2793,110.2998 506.1148,110.2998 507.8115,102.7197 		"/>
	</g>
	<path class="st0" d="M549.4058,114.978c0.1084,1.2109,0.1679,2.4687,0.1679,3.7812c0,0.7486-0.0293,1.4737-0.0527,2.2032h41.457
		c0.0733-1.4576,0.1104-2.9302,0.1104-4.4175c0-0.5357-0.0303-1.0415-0.04-1.5669H549.4058z"/>
	<polygon class="st0" points="397.2598,114.978 393.3316,120.9624 426.1709,120.9624 430.3569,114.978 	"/>
	<polygon class="st0" points="464.2388,114.978 462.9077,120.9624 503.7285,120.9624 505.0679,114.978 	"/>
	<path class="st0" d="M549.2105,125.6406c-3.2618,30.6719-28.5498,42.5791-56.0972,42.7519l9.5684-42.7519h-40.814l-12.668,56.959
		c-2.2143,9.9629-5.1675,11.0703-9.0405,14.3916h51.1079c57.8037,0,94.7852-28.5645,99.3379-71.3506H549.2105z"/>
	<path class="st0" d="M401.8984,155.6611l21-30.0205h-70.1489l8.5572,30.0205l-5.9048,26.9385
		c-2.2144,10.1484-5.1656,11.0703-9.0406,14.3916h52.5855c-1.6607-2.0293-3.69-4.2432-3.69-7.0108
		c0-1.1074,0.1851-3.5058,0.7388-6.2734L401.8984,155.6611z"/>
	<path class="st0" d="M243.0352,168.3925l42.1831-42.7519h-46.0205l-47.8262,48.4717l-4.9824,22.8789h116.4267l7.565-33.3965
		c-4.9805,2.9521-10.148,4.7978-19.189,4.7978H243.0352z"/>
	<g>
		<path class="st0" d="M751.6157,91.2602c1.5957-0.2295,3.3096-0.3633,5.169-0.3633h21.2178l-0.0811,0.3633h40.5947l0.0801-0.3633
			h22.6934c1.915,0,3.5879,0.1314,5.0839,0.3633H857.77l6.4004-28.9619H747.19l-6.4014,28.9619H751.6157z"/>
		<polygon class="st0" points="775.3618,102.7197 773.6694,110.2998 814.314,110.2998 815.9868,102.7197 		"/>
	</g>
	<path class="st0" d="M996.4341,91.2602h-116.249l6.872-31.7305h90.4971C990.0142,72.7968,996.4341,91.2602,996.4341,91.2602z"/>
	<path class="st0" d="M31.0508,91.2602h151.3496l6.5801-31.73H49.9282C37.5078,72.4897,31.0508,91.2602,31.0508,91.2602z"/>
	<path class="st0" d="M178.4522,110.2998l1.5717-7.5801H27.6358c-0.5831,2.4931-1.0752,5.0205-1.4683,7.5801H178.4522z"/>
	<path class="st0" d="M877.7026,102.7197l-1.6416,7.5801h125.2569c-0.0038-0.0235-0.0088-0.0469-0.0117-0.0699
		c-0.1758-1.1372-0.376-2.2666-0.5899-3.3906c-0.041-0.2173-0.082-0.4341-0.125-0.6509c-0.2295-1.1626-0.4736-2.3203-0.7422-3.4687
		H877.7026z"/>
	<path class="st0" d="M176.2412,120.9624l1.2407-5.9844H25.565c-0.209,1.9785-0.3599,3.9736-0.4527,5.9844H176.2412z"/>
	<path class="st0" d="M873.7515,120.9624h128.6212c-0.0928-2.0108-0.2432-4.0059-0.4532-5.9844h-126.872L873.7515,120.9624z"/>
</g>
<g id="Layer_2" class="st1">
	<g class="st2">
		<path class="st3" d="M901.5151,1.1787c68.629,0,124.462,55.8335,124.462,124.4619c0,68.6279-55.8329,124.4609-124.462,124.4609"/>
		<path class="st3" d="M901.5151,228.1015c56.4981,0,102.462-45.9639,102.462-102.4609c0-56.4976-45.9639-102.4619-102.462-102.4619
			"/>
	</g>
	<g class="st2">
		<path class="st3" d="M125.6328,250.1015c-68.6284,0-124.4619-55.833-124.4619-124.4609
			c0-68.6284,55.8335-124.4619,124.4619-124.4619"/>
		<path class="st3" d="M125.6328,23.1787c-56.4975,0-102.4619,45.9643-102.4619,102.4619
			c0,56.497,45.9644,102.4609,102.4619,102.4609"/>
	</g>
</g>
<g id="Layer_3">
	<g>
		<path class="st0" d="M3.1328,97.7148c-0.5698,2.499-1.0595,5.0273-1.477,7.5801h25.4121c0.5283-2.564,1.1577-5.0908,1.8774-7.5801
			H3.1328z"/>
		<path class="st0" d="M33.0303,86.2553C48.3887,50.2792,84.1172,25,125.6406,25h776.2036c41.5235,0,77.252,25.2792,92.6104,61.2553
			h26.7002C1004.5933,36.2104,957.3706,0,901.8442,0H125.6406C70.1138,0,22.8921,36.2104,6.3296,86.2553H33.0303z"/>
		<path class="st0" d="M25.4678,115.9575c0.1929-2.0122,0.4438-4.0078,0.7539-5.9844H0.9756
			c-0.2476,1.9814-0.4522,3.9761-0.606,5.9844H25.4678z"/>
		<path class="st0" d="M1026.5093,109.9731h-25.2461c0.3105,1.9766,0.5605,3.9722,0.7539,5.9844h25.0977
			C1026.9614,113.9492,1026.7573,111.9545,1026.5093,109.9731z"/>
		<path class="st0" d="M1002.3599,120.6357c0.082,1.6582,0.125,3.3267,0.125,5.0049c0,55.4931-45.1475,100.6406-100.6407,100.6406
			H125.6406C70.1475,226.2812,25,181.1337,25,125.6406c0-1.6782,0.0435-3.3467,0.125-5.0049H0.1084
			C0.043,122.2968,0,123.9638,0,125.6406c0,69.2783,56.3623,125.6406,125.6406,125.6406h776.2036
			c69.2784,0,125.6407-56.3623,125.6407-125.6406c0-1.6768-0.043-3.3438-0.1084-5.0049H1002.3599z"/>
		<path class="st0" d="M998.5396,97.7148c0.7197,2.4893,1.3496,5.0161,1.8779,7.5801h25.4111
			c-0.417-2.5528-0.9072-5.0811-1.4766-7.5801H998.5396z"/>
	</g>
</g>
</svg>
