<?xml version="1.0" encoding="utf-8"?>
<!-- Generator: Adobe Illustrator 23.0.4, SVG Export Plug-In . SVG Version: 6.00 Build 0)  -->
<svg version="1.1" id="Layer_1" xmlns="http://www.w3.org/2000/svg" xmlns:xlink="http://www.w3.org/1999/xlink" x="0px" y="0px"
	 viewBox="0 0 319.58 319.58" style="enable-background:new 0 0 319.58 319.58;" xml:space="preserve">
<style type="text/css">
	.st0{fill:#06AD4B;}
	.st1{fill:#FFFFFF;}
</style>
<circle class="st0" cx="159.79" cy="159.79" r="159.79"/>
<g>
	<path class="st1" d="M108.81,231.62H83.75l-19.01-84.24h-0.86v84.24H43.14V87.98H68.2l19.01,89.64h0.86V87.98h20.74V231.62z"/>
	<path class="st1" d="M177.06,112.6h-27.22v30.46h22.03v23.76h-22.03v41.04h27.22v23.76h-53.14V87.98h53.14V112.6z"/>
	<path class="st1" d="M241.43,87.98l9.29,90.94h0.86l3.89-90.94h25.92l-15.55,143.64h-24.62l-9.07-73.44h-0.86l-9.07,73.44h-23.11
		L183.54,87.98h25.92l3.89,90.94h0.86l9.29-90.94H241.43z"/>
</g>
</svg>
